<?xml version="1.0" standalone="no"?>
<svg viewBox="0 0 200 200" xmlns="http://www.w3.org/2000/svg">
  <path fill="#ff3333" d="M27.2,-50C31.6,-39.5,29.1,-25.8,34.4,-15.3C39.8,-4.9,53,2.3,60.8,14.9C68.6,27.5,70.9,45.5,60.7,47C50.6,48.5,28,33.5,13.1,32.3C-1.9,31.1,-9.2,43.6,-14.9,44.6C-20.6,45.7,-24.7,35.4,-29.4,27.1C-34.1,18.8,-39.3,12.6,-45.8,3.3C-52.3,-6,-60,-18.5,-57.2,-26.7C-54.4,-34.9,-41,-38.9,-29.7,-46.3C-18.4,-53.7,-9.2,-64.4,1.1,-66.2C11.4,-67.9,22.8,-60.5,27.2,-50Z" transform="translate(200 200)" />
</svg>
